<svg id="Capa_1" enable-background="new 0 0 512 512" height="512" viewBox="0 0 512 512" width="512" xmlns="http://www.w3.org/2000/svg"><g><circle cx="87.719" cy="238.942" fill="#ffd3bd" r="49.855"/><circle cx="428.095" cy="238.942" fill="#ffbe9d" r="49.855"/><path d="m384.536 483.616c10.522 0 18.778-9.233 17.368-19.659-9.596-70.958-70.409-125.657-143.997-125.657s-134.401 54.699-143.997 125.656c-1.41 10.427 6.846 19.659 17.368 19.659h253.258z" fill="#fbf1cf"/><path d="m334.522 360.125c-9.985-6.208-20.782-11.228-32.187-14.889v22.473c0 47.509-29.343 58.635-44.428 58.635s-44.428-11.126-44.428-58.635v-22.473c-11.406 3.661-22.203 8.681-32.187 14.889 3.304 36.961 7.115 91.007 2.53 123.491h148.171c-4.586-32.483-.775-86.529 2.529-123.491z" fill="#a2ddfd"/><path d="m429.285 228.228c0-87.391-76.729-155.358-171.378-155.358-94.65 0-171.378 67.968-171.378 155.358s76.729 156.637 171.378 156.637 171.378-69.247 171.378-156.637z" fill="#ffd3bd"/><path d="m202.844 80.906c-67.638 20.433-116.315 77.716-116.315 147.322 0 87.39 76.729 156.637 171.378 156.637 24.383 0 47.571-4.593 68.57-12.911-210.229-11.607-180.557-227.617-123.633-291.048z" fill="#ffbe9d"/><g><g><path d="m197.933 265.554c0 14.934-15.202 27.039-33.954 27.039s-33.954-12.106-33.954-27.039 15.202-27.04 33.954-27.04 33.954 12.106 33.954 27.04z" fill="#e7889d"/><path d="m314.067 265.554c0 14.934 15.202 27.039 33.954 27.039s33.954-12.106 33.954-27.039-15.202-27.04-33.954-27.04-33.954 12.106-33.954 27.04z" fill="#e7889d"/><path d="m283.375 244.778c0-16.919-12.257-18.508-27.375-18.508-15.119 0-27.376 1.59-27.376 18.508s12.257 30.633 27.376 30.633 27.375-13.715 27.375-30.633z" fill="#4e5660"/></g><g fill="#4e5660"><path d="m169.655 240.772c-4.142 0-7.5-3.358-7.5-7.5v-13.865c0-4.142 3.358-7.5 7.5-7.5s7.5 3.358 7.5 7.5v13.865c0 4.142-3.358 7.5-7.5 7.5z"/><path d="m342.346 240.772c-4.143 0-7.5-3.358-7.5-7.5v-13.865c0-4.142 3.357-7.5 7.5-7.5s7.5 3.358 7.5 7.5v13.865c0 4.142-3.358 7.5-7.5 7.5z"/></g></g><path d="m257.907 65.342c120.822 0 174.459 82.62 179.07 142.387.941 12.2-12.032 20.646-22.828 14.885-23.108-12.33-47.683-29.465-63.327-63.603-47.697 31.084-146.732 30.076-207.226 23.387-9.717 17.544-23.847 29.066-41.379 39.315-10.788 6.306-24.36-2.152-23.331-14.606 4.935-59.717 58.617-141.765 179.021-141.765z" fill="#4e5660"/><path d="m257.907 117.94c37.833 0 90.361-11.013 105.673-25.112-12.993-27.597-47.951-67.12-83.466-87.032-13.781-7.727-30.634-7.727-44.415 0-35.514 19.913-70.472 59.436-83.466 87.032 15.313 14.099 67.841 25.112 105.674 25.112z" fill="#fbf1cf"/><path d="m208.046 25.128c-24.807 20.654-46.254 47.399-55.812 67.699 10.144 9.341 36.625 17.323 64.345 21.65-16.295-19.986-19.98-65.407-8.533-89.349z" fill="#f5e2a2"/><path d="m228.888 116.146c10.04 1.156 19.952 1.794 29.019 1.794 9.066 0 18.979-.638 29.019-1.794-3.419-26.327-11.018-47.047-18.176-62.655-4.253-9.275-17.432-9.275-21.686 0-7.158 15.608-14.756 36.327-18.176 62.655z" fill="#f5e2a2"/><g><path d="m198.835 500.034c17.503 17.503 37.048 13.515 47.939 2.625 29.001-29.001 16.348-77.967-20.52-114.835l-68.027-68.027c-36.868-36.868-85.834-49.521-114.835-20.52-10.891 10.89-14.878 30.436 2.625 47.939z" fill="#e0b799"/><g fill="#d1986f"><path d="m127.196 358.58c6.52 6.52 17.09 6.52 23.61 0l23.102-23.102-15.681-15.681c-2.678-2.678-5.422-5.225-8.216-7.641l-22.814 22.814c-6.521 6.52-6.521 17.09-.001 23.61z"/><path d="m226.254 387.824-15.681-15.681-23.102 23.102c-6.52 6.52-6.52 17.09 0 23.61 6.52 6.52 17.09 6.52 23.61 0l22.814-22.815c-2.416-2.794-4.963-5.538-7.641-8.216z"/></g></g></g></svg>